REM DIRINDEX 1\2,1\3,1\4,1\5,1\6
REM DIRNAME "folder01","folder02","folder03","folder04","folder05","folder06"
TITLE ""
FILE "Disc4Track48.mp3" MP3
  TRACK 01 AUDIO
    TITLE "3:cjc161_07632"
    INDEX 01 00:00:00
  TRACK 02 AUDIO
    TITLE "4:cjc161_07633"
    INDEX 01 00:01:14
  TRACK 03 AUDIO
    TITLE "5:cjc161_07634"
    INDEX 01 00:02:11
  TRACK 04 AUDIO
    TITLE "0:"
    INDEX 01 00:03:36
  TRACK 05 AUDIO
    TITLE "3:cjc161_07635"
    INDEX 01 00:03:73
  TRACK 06 AUDIO
    TITLE "4:cjc161_07636"
    INDEX 01 00:05:15
  TRACK 07 AUDIO
    TITLE "5:cjc161_07637"
    INDEX 01 00:07:38
  TRACK 08 AUDIO
    TITLE "6:cjc161_07638"
    INDEX 01 00:08:57
  TRACK 09 AUDIO
    TITLE "0:"
    INDEX 01 00:14:32
  TRACK 10 AUDIO
    TITLE "3:cjc161_07639"
    INDEX 01 00:14:63
  TRACK 11 AUDIO
    TITLE "4:cjc161_07640"
    INDEX 01 00:16:07
  TRACK 12 AUDIO
    TITLE "5:cjc161_07641"
    INDEX 01 00:17:17
  TRACK 13 AUDIO
    TITLE "0:"
    INDEX 01 00:18:40
  TRACK 14 AUDIO
    TITLE "3:cjc161_07642"
    INDEX 01 00:19:02
  TRACK 15 AUDIO
    TITLE "4:cjc161_07643"
    INDEX 01 00:20:19
  TRACK 16 AUDIO
    TITLE "5:cjc161_07644"
    INDEX 01 00:22:71
  TRACK 17 AUDIO
    TITLE "0:"
    INDEX 01 00:24:15
  TRACK 18 AUDIO
    TITLE "3:cjc161_07645"
    INDEX 01 00:24:54
  TRACK 19 AUDIO
    TITLE "4:cjc161_07646"
    INDEX 01 00:25:71
  TRACK 20 AUDIO
    TITLE "5:cjc161_07647"
    INDEX 01 00:27:07
  TRACK 21 AUDIO
    TITLE "6:cjc161_07648"
    INDEX 01 00:28:20
  TRACK 22 AUDIO
    TITLE "0:"
    INDEX 01 00:35:40
  TRACK 23 AUDIO
    TITLE "3:cjc161_07649"
    INDEX 01 00:36:06
  TRACK 24 AUDIO
    TITLE "4:cjc161_07650"
    INDEX 01 00:37:23
  TRACK 25 AUDIO
    TITLE "5:cjc161_07651"
    INDEX 01 00:39:04
  TRACK 26 AUDIO
    TITLE "0:"
    INDEX 01 00:40:22
  TRACK 27 AUDIO
    TITLE "3:cjc161_07652"
    INDEX 01 00:40:59
  TRACK 28 AUDIO
    TITLE "4:cjc161_07653"
    INDEX 01 00:42:19
  TRACK 29 AUDIO
    TITLE "5:cjc161_07654"
    INDEX 01 00:43:41
  TRACK 30 AUDIO
    TITLE "6:cjc161_07655"
    INDEX 01 00:44:74
  TRACK 31 AUDIO
    TITLE "0:"
    INDEX 01 00:50:08
  TRACK 32 AUDIO
    TITLE "3:cjc161_07656"
    INDEX 01 00:50:36
  TRACK 33 AUDIO
    TITLE "4:cjc161_07657"
    INDEX 01 00:51:63
  TRACK 34 AUDIO
    TITLE "5:cjc161_07658"
    INDEX 01 00:52:62
  TRACK 35 AUDIO
    TITLE "0:"
    INDEX 01 00:54:14
  TRACK 36 AUDIO
    TITLE "3:cjc161_07659"
    INDEX 01 00:54:53
  TRACK 37 AUDIO
    TITLE "4:cjc161_07660"
    INDEX 01 00:56:05
  TRACK 38 AUDIO
    TITLE "5:cjc161_07661"
    INDEX 01 00:57:02
  TRACK 39 AUDIO
    TITLE "6:cjc161_07662"
    INDEX 01 00:58:29
  TRACK 40 AUDIO
    TITLE "0:"
    INDEX 01 01:01:33
  TRACK 41 AUDIO
    TITLE "3:cjc161_07663"
    INDEX 01 01:01:65
  TRACK 42 AUDIO
    TITLE "4:cjc161_07664"
    INDEX 01 01:02:74
  TRACK 43 AUDIO
    TITLE "5:cjc161_07665"
    INDEX 01 01:04:01
  TRACK 44 AUDIO
    TITLE "0:"
    INDEX 01 01:05:10
  TRACK 45 AUDIO
    TITLE "3:cjc161_07666"
    INDEX 01 01:05:47
  TRACK 46 AUDIO
    TITLE "4:cjc161_07667"
    INDEX 01 01:06:70
  TRACK 47 AUDIO
    TITLE "5:cjc161_07668"
    INDEX 01 01:08:02
  TRACK 48 AUDIO
    TITLE "6:cjc161_07669"
    INDEX 01 01:09:23
  TRACK 49 AUDIO
    TITLE "0:"
    INDEX 01 01:11:01
  TRACK 50 AUDIO
    TITLE "3:cjc161_07670"
    INDEX 01 01:11:34
  TRACK 51 AUDIO
    TITLE "4:cjc161_07671"
    INDEX 01 01:12:57
  TRACK 52 AUDIO
    TITLE "5:cjc161_07672"
    INDEX 01 01:14:60
  TRACK 53 AUDIO
    TITLE "6:cjc161_07673"
    INDEX 01 01:16:06
  TRACK 54 AUDIO
    TITLE "0:"
    INDEX 01 01:17:64
  TRACK 55 AUDIO
    TITLE "3:cjc161_07674"
    INDEX 01 01:18:22
  TRACK 56 AUDIO
    TITLE "4:cjc161_07675"
    INDEX 01 01:19:53
  TRACK 57 AUDIO
    TITLE "5:cjc161_07676"
    INDEX 01 01:20:52
  TRACK 58 AUDIO
    TITLE "6:cjc161_07677"
    INDEX 01 01:22:08
  TRACK 59 AUDIO
    TITLE "0:"
    INDEX 01 01:24:07
  TRACK 60 AUDIO
    TITLE "3:cjc161_07678"
    INDEX 01 01:24:40
  TRACK 61 AUDIO
    TITLE "4:cjc161_07679"
    INDEX 01 01:26:02
  TRACK 62 AUDIO
    TITLE "5:cjc161_07680"
    INDEX 01 01:27:68
  TRACK 63 AUDIO
    TITLE "0:"
    INDEX 01 01:29:32
  TRACK 64 AUDIO
    TITLE "3:cjc161_07681"
    INDEX 01 01:29:71
  TRACK 65 AUDIO
    TITLE "4:cjc161_07682"
    INDEX 01 01:31:39
  TRACK 66 AUDIO
    TITLE "5:cjc161_07683"
    INDEX 01 01:32:61
  TRACK 67 AUDIO
    TITLE "6:cjc161_07684"
    INDEX 01 01:34:31
  TRACK 68 AUDIO
    TITLE "0:"
    INDEX 01 01:36:67
